<?xml version="1.0" standalone="no"?>
<!DOCTYPE svg PUBLIC "-//W3C//DTD SVG 20010904//EN"
 "http://www.w3.org/TR/2001/REC-SVG-20010904/DTD/svg10.dtd">
<svg version="1.0" xmlns="http://www.w3.org/2000/svg"
 width="700.000000pt" height="700.000000pt" viewBox="0 0 700.000000 700.000000"
 preserveAspectRatio="xMidYMid meet">
<metadata>
Created by potrace 1.11, written by Peter Selinger 2001-2013
</metadata>
<g transform="translate(0.000000,700.000000) scale(0.100000,-0.100000)"
fill="#000000" stroke="none">
<path d="M2255 6869 c-22 -4 -51 -10 -65 -12 -153 -30 -375 -167 -505 -311
-151 -168 -220 -332 -232 -552 -16 -294 87 -568 285 -756 52 -50 170 -130 349
-238 111 -67 308 -207 378 -267 66 -58 225 -215 253 -252 15 -18 37 -45 50
-60 98 -112 258 -388 351 -601 79 -182 250 -666 251 -713 1 -6 6 -25 13 -41
13 -29 13 44 21 2130 3 810 1 862 -49 1011 -66 195 -170 333 -345 457 -127 90
-273 157 -417 191 -75 18 -275 27 -338 14z"/>
<path d="M4270 6869 c-273 -28 -502 -210 -583 -464 -91 -281 11 -585 253 -763
201 -146 481 -166 705 -49 225 118 366 351 365 604 -1 69 -5 103 -23 178 -26
107 -102 230 -198 319 -142 132 -328 194 -519 175z"/>
<path d="M5528 5355 c-2 -2 -34 -5 -73 -8 -170 -13 -435 -97 -656 -207 -631
-317 -1029 -919 -1163 -1760 -8 -52 -18 -126 -22 -165 -3 -38 -8 -83 -10 -100
-3 -28 -10 -128 -19 -260 -19 -266 -25 -1015 -11 -1365 11 -297 23 -529 31
-612 2 -24 6 -88 10 -143 3 -56 8 -114 10 -130 2 -17 6 -70 9 -120 4 -49 9
-106 11 -125 2 -19 7 -75 10 -125 4 -49 8 -91 10 -93 2 -2 11 32 20 75 9 43
31 132 47 198 17 66 31 125 32 130 27 110 111 392 161 543 156 463 269 680
447 860 178 179 456 346 718 430 67 22 402 107 640 162 74 18 142 34 150 36
295 71 518 197 726 409 429 437 513 1134 201 1670 -62 106 -119 181 -210 274
-232 237 -506 373 -842 417 -49 6 -222 13 -227 9z"/>
<path d="M965 4964 c-350 -54 -654 -269 -825 -584 -51 -93 -105 -249 -123
-357 -16 -95 -15 -290 2 -381 68 -359 289 -655 611 -816 84 -42 180 -79 236
-91 131 -27 205 -36 309 -35 66 0 134 3 150 5 55 7 298 18 405 18 336 0 555
-42 773 -148 177 -86 317 -202 517 -430 29 -33 66 -75 82 -93 17 -18 66 -81
110 -140 96 -128 99 -131 94 -106 -2 10 -7 48 -10 84 -4 36 -8 75 -10 86 -2
11 -7 45 -10 75 -6 52 -11 84 -21 139 -3 14 -8 43 -11 65 -5 35 -44 246 -59
315 -2 14 -7 39 -10 55 -7 39 -20 95 -40 175 -9 36 -21 83 -26 105 -21 96 -75
286 -126 445 -80 253 -121 355 -234 577 -214 423 -497 718 -851 887 -53 25
-99 46 -101 46 -3 0 -18 5 -34 12 -15 6 -31 12 -35 13 -5 2 -9 3 -10 5 -2 1
-10 3 -18 5 -8 2 -58 15 -110 28 -52 14 -120 28 -150 32 -30 4 -58 9 -61 11
-20 12 -333 11 -414 -2z"/>
</g>
</svg>
