<svg id="logo" xmlns="http://www.w3.org/2000/svg" viewBox="0 0 610.37 123.64"><defs><style>.cls-1{fill:#116cb2;}</style></defs><title>logoTextNew</title><path class="cls-1" d="M67,123.64a340.82,340.82,0,0,1-1.58-47.17c.31-6.81.81-13.62,2.8-20.2,4.26-14.07,13.22-23.55,27.51-27.52a25.61,25.61,0,0,1,32,20.92c2,13.6-6.57,25.94-20.11,29-4.75,1.09-9.51,2.18-14.2,3.5A33.88,33.88,0,0,0,84,86.84a24,24,0,0,0-8.93,10.55A132.36,132.36,0,0,0,68,119.31C67.67,120.75,67.35,122.2,67,123.64Z"/><path class="cls-1" d="M60.42,93.14c-1-1.41-1.91-2.75-2.93-3.95C55.71,87.11,53.93,85,52,83.1a25,25,0,0,0-16.51-7,82.73,82.73,0,0,0-12.08.29C12.86,77.34,3.48,71.05.73,61A20.85,20.85,0,0,1,20.66,34.76c12.64,0,21.92,5.95,28.23,16.7,3.72,6.34,5.88,13.3,7.72,20.37A152.45,152.45,0,0,1,60.42,92.6C60.43,92.72,60.42,92.84,60.42,93.14Z"/><path class="cls-1" d="M62,70.24c-.71-2.32-1.37-4.65-2.14-6.95a62.31,62.31,0,0,0-8.2-17c-4.22-5.83-9.88-10-16.08-13.5a16.79,16.79,0,0,1-8.68-11.6c-1.41-7,.65-12.9,6.2-17.32s12-5.07,18.47-2c6.93,3.27,10.77,8.77,10.74,16.66q-.11,25.4-.2,50.79c0,.3,0,.59,0,.89Z"/><path class="cls-1" d="M79.24.12A12.42,12.42,0,1,1,66.8,12.52,12.43,12.43,0,0,1,79.24.12Z"/><path class="cls-1" d="M185.63,71.69Q189.18,76,189.18,83q0,11.1-6.45,15.85T167,103.64h-25.7a4.78,4.78,0,0,1-4.8-4.8V38.44a4.78,4.78,0,0,1,4.8-4.8H167q9.1,0,13.85,4.5t4.75,13a16,16,0,0,1-2.3,8.55,14.79,14.79,0,0,1-6.7,5.75A19.76,19.76,0,0,1,185.63,71.69Zm-12.9-26.2A9.9,9.9,0,0,0,165.58,43h-18.9v19.5h19.1a9.88,9.88,0,0,0,6.8-2.65q2.7-2.55,2.7-7.25T172.73,45.49Zm3,46.1Q179,88.74,179,83q0-11.1-12.6-11.1h-19.7v22.5h20.2A13,13,0,0,0,175.68,91.59Z"/><path class="cls-1" d="M200.63,43.09a4.13,4.13,0,0,1-1.25-3.35v-1.6a4,4,0,0,1,1.35-3.4,7,7,0,0,1,4.15-1,6.28,6.28,0,0,1,4,1,4.14,4.14,0,0,1,1.25,3.35v1.6a4,4,0,0,1-1.3,3.4,6.75,6.75,0,0,1-4.1,1A6.46,6.46,0,0,1,200.63,43.09Zm7.6,59.15a4.58,4.58,0,0,1-3.45,1.4,4.46,4.46,0,0,1-3.35-1.4,4.71,4.71,0,0,1-1.35-3.4V55.54a4.72,4.72,0,0,1,1.35-3.4,4.47,4.47,0,0,1,3.35-1.4,4.59,4.59,0,0,1,3.45,1.4,4.72,4.72,0,0,1,1.35,3.4v43.3A4.71,4.71,0,0,1,208.23,102.24Z"/><path class="cls-1" d="M270.53,51.89a4.8,4.8,0,0,1,1.35,3.55v44q0,8.1-3.45,13.55a20.73,20.73,0,0,1-9.35,8.05,32.67,32.67,0,0,1-13.3,2.6,37.6,37.6,0,0,1-9.35-1.4q-5.35-1.4-6.85-2.9-3.1-1.6-3.1-4a4.59,4.59,0,0,1,.4-1.6,3.79,3.79,0,0,1,3.7-2.5,7.57,7.57,0,0,1,2.8.6q8,3.1,12.5,3.1,8,0,12.25-3.85t4.25-10.55v-5.4a17.41,17.41,0,0,1-7,6.7,20.93,20.93,0,0,1-10.45,2.8,23.61,23.61,0,0,1-12.6-3.5,24.34,24.34,0,0,1-8.95-9.75,30,30,0,0,1-3.25-14,30,30,0,0,1,3.25-14.05,24.48,24.48,0,0,1,8.9-9.75A23.18,23.18,0,0,1,244.68,50a22.77,22.77,0,0,1,17.7,8.6v-3.2a5,5,0,0,1,1.3-3.5,4.42,4.42,0,0,1,3.4-1.4A4.67,4.67,0,0,1,270.53,51.89Zm-15.85,41.6a16.11,16.11,0,0,0,6-6.6,20.86,20.86,0,0,0,2.15-9.55,20.56,20.56,0,0,0-2.15-9.5,16.55,16.55,0,0,0-6-6.6,16,16,0,0,0-8.7-2.4,15.76,15.76,0,0,0-8.6,2.4,16.46,16.46,0,0,0-6,6.65,21.84,21.84,0,0,0,0,18.9,16.45,16.45,0,0,0,6,6.65,15.76,15.76,0,0,0,8.6,2.4A16.2,16.2,0,0,0,254.68,93.49Z"/><path class="cls-1" d="M325,36.49a20.57,20.57,0,0,1,7.15,7.75A22.35,22.35,0,0,1,334.78,55a22.92,22.92,0,0,1-2.65,10.9,20.76,20.76,0,0,1-7.15,7.9,17.74,17.74,0,0,1-9.8,2.9h-18.8v22.1a4.82,4.82,0,0,1-1.3,3.4,4.71,4.71,0,0,1-6.65.05,4.88,4.88,0,0,1-1.25-3.45V38.44a4.78,4.78,0,0,1,4.8-4.8h23.2A18,18,0,0,1,325,36.49Zm-4.8,29.4a12.16,12.16,0,0,0,3.65-4.65,14.52,14.52,0,0,0,1.35-6.2,13.09,13.09,0,0,0-3-8.65,8.9,8.9,0,0,0-7-3.55h-18.8v24.8h18.8A8.09,8.09,0,0,0,320.18,65.89Z"/><path class="cls-1" d="M371.58,51.39a4,4,0,0,1,1.9,3.35,5,5,0,0,1-1.25,3.65,4.15,4.15,0,0,1-3,1.25,9.52,9.52,0,0,1-2.7-.6,11.28,11.28,0,0,0-3.3-.7,10.17,10.17,0,0,0-6,2.15,15.74,15.74,0,0,0-4.8,5.9,18.6,18.6,0,0,0-1.85,8.35v24.1a4.71,4.71,0,0,1-1.35,3.4,4.58,4.58,0,0,1-3.45,1.4,4.51,4.51,0,0,1-3.4-1.35,4.77,4.77,0,0,1-1.3-3.45V56a4.72,4.72,0,0,1,1.35-3.4,4.47,4.47,0,0,1,3.35-1.4,4.59,4.59,0,0,1,3.45,1.4,4.72,4.72,0,0,1,1.35,3.4v5.1a18.93,18.93,0,0,1,6.6-8,17.71,17.71,0,0,1,10-3.15A7.57,7.57,0,0,1,371.58,51.39Z"/><path class="cls-1" d="M421.18,91.44a25.43,25.43,0,0,1-9.55,9.7,27.21,27.21,0,0,1-26.7,0,25.4,25.4,0,0,1-9.55-9.7,28,28,0,0,1-3.5-14,28.52,28.52,0,0,1,3.5-14.1,25.23,25.23,0,0,1,9.55-9.8,27.21,27.21,0,0,1,26.7,0,25.26,25.26,0,0,1,9.55,9.8,28.54,28.54,0,0,1,3.5,14.1A28,28,0,0,1,421.18,91.44Zm-8.25-23.65a16.7,16.7,0,0,0-6.1-6.6,16.73,16.73,0,0,0-17.1,0,16.7,16.7,0,0,0-6.1,6.6,20.31,20.31,0,0,0-2.25,9.65,19.8,19.8,0,0,0,2.25,9.5,16.76,16.76,0,0,0,6.1,6.55,16.72,16.72,0,0,0,17.1,0,16.77,16.77,0,0,0,6.1-6.55,19.8,19.8,0,0,0,2.25-9.5A20.31,20.31,0,0,0,412.93,67.79Z"/><path class="cls-1" d="M448.23,40.24a7.75,7.75,0,0,0-1.55,4.9v7h9.9a4.4,4.4,0,0,1,3.25,1.25,4.28,4.28,0,0,1,1.25,3.15,4.11,4.11,0,0,1-1.25,3.1,4.5,4.5,0,0,1-3.25,1.2h-9.9v38a4.71,4.71,0,0,1-1.35,3.4,4.58,4.58,0,0,1-3.45,1.4,4.46,4.46,0,0,1-3.35-1.4,4.71,4.71,0,0,1-1.35-3.4v-38H431a4.54,4.54,0,0,1-3.2-1.2,4,4,0,0,1-1.3-3.1,4.19,4.19,0,0,1,1.3-3.15,4.44,4.44,0,0,1,3.2-1.25h6.2v-7q0-7,4.5-11.15t12.7-4.15a13.7,13.7,0,0,1,6,1.25,4,4,0,0,1,2.6,3.75A4.48,4.48,0,0,1,461.83,38a3.61,3.61,0,0,1-2.75,1.25,15.56,15.56,0,0,1-2.2-.4,14.76,14.76,0,0,0-3.8-.6A5.75,5.75,0,0,0,448.23,40.24Zm21.5,2.85a4.13,4.13,0,0,1-1.25-3.35v-1.6a4,4,0,0,1,1.35-3.4,7,7,0,0,1,4.15-1,6.28,6.28,0,0,1,4,1,4.14,4.14,0,0,1,1.25,3.35v1.6a4,4,0,0,1-1.3,3.4,6.75,6.75,0,0,1-4.1,1A6.46,6.46,0,0,1,469.73,43.09Zm7.6,59.15a4.58,4.58,0,0,1-3.45,1.4,4.46,4.46,0,0,1-3.35-1.4,4.71,4.71,0,0,1-1.35-3.4V55.54a4.72,4.72,0,0,1,1.35-3.4,4.47,4.47,0,0,1,3.35-1.4,4.59,4.59,0,0,1,3.45,1.4,4.72,4.72,0,0,1,1.35,3.4v43.3A4.71,4.71,0,0,1,477.33,102.24Z"/><path class="cls-1" d="M501.28,102.24a4.63,4.63,0,0,1-3.4,1.4,4.46,4.46,0,0,1-3.35-1.4,4.71,4.71,0,0,1-1.35-3.4V34.44a4.78,4.78,0,0,1,4.8-4.8,4.47,4.47,0,0,1,3.35,1.4,4.72,4.72,0,0,1,1.35,3.4v64.4A4.63,4.63,0,0,1,501.28,102.24Z"/><path class="cls-1" d="M561.17,78.49a4.79,4.79,0,0,1-3.3,1.25h-35.2a17.39,17.39,0,0,0,5.55,11.7,17,17,0,0,0,11.85,4.4,18.54,18.54,0,0,0,7.8-1.4,19.57,19.57,0,0,0,5.3-3.6,5.63,5.63,0,0,1,2.9-.9,3.79,3.79,0,0,1,2.85,1.2,3.93,3.93,0,0,1,1.15,2.8,4.94,4.94,0,0,1-2,3.8,23.53,23.53,0,0,1-7.7,4.9,25.27,25.27,0,0,1-9.8,2,29,29,0,0,1-14.25-3.4,23.68,23.68,0,0,1-9.5-9.5,28.17,28.17,0,0,1-3.35-13.8,30.42,30.42,0,0,1,3.45-14.75,25,25,0,0,1,9.1-9.75,23.44,23.44,0,0,1,24.15-.1,25.07,25.07,0,0,1,9,9.1,26,26,0,0,1,3.5,13A4.27,4.27,0,0,1,561.17,78.49ZM528.47,62q-4.1,3.15-5.4,9.75h29.5v-.8a12.22,12.22,0,0,0-4.75-8.7,15,15,0,0,0-9.65-3.4A15.45,15.45,0,0,0,528.47,62Z"/><path class="cls-1" d="M569.77,92.74a4,4,0,0,1,2.1-3.4,3.91,3.91,0,0,1,2.3-.7,4.59,4.59,0,0,1,3.3,1.5,21.1,21.1,0,0,0,6.45,5.1,18.48,18.48,0,0,0,8.25,1.7,14.07,14.07,0,0,0,6.7-1.75,5.69,5.69,0,0,0,2.9-5.35,5.75,5.75,0,0,0-3-5.2,33.55,33.55,0,0,0-8.65-3.3,63.68,63.68,0,0,1-9.3-3.15,16.66,16.66,0,0,1-6.25-4.8,12.71,12.71,0,0,1-2.55-8.25,12.81,12.81,0,0,1,2.55-7.9,17,17,0,0,1,6.8-5.3,22.42,22.42,0,0,1,9.25-1.9,26.78,26.78,0,0,1,9.55,1.8,18,18,0,0,1,7.75,5.5,4.42,4.42,0,0,1,1.2,2.9,4.3,4.3,0,0,1-1.6,3.1,3.6,3.6,0,0,1-2.5.9,3.75,3.75,0,0,1-2.9-1.2,14.08,14.08,0,0,0-5.15-3.7,17.07,17.07,0,0,0-6.75-1.3,12.57,12.57,0,0,0-6.45,1.55q-2.65,1.55-2.65,5.25a5.81,5.81,0,0,0,3.05,5.2,38.66,38.66,0,0,0,9,3.3,55.9,55.9,0,0,1,8.8,3,15.36,15.36,0,0,1,5.9,4.75,13.25,13.25,0,0,1,2.4,8.25,12.83,12.83,0,0,1-2.7,8.15,17.4,17.4,0,0,1-7,5.3,23.41,23.41,0,0,1-9.25,1.85,30.35,30.35,0,0,1-11.65-2.2,21.71,21.71,0,0,1-9.05-7A5,5,0,0,1,569.77,92.74Z"/></svg>