<?xml version="1.0" encoding="utf-8"?>
<!-- Generator: Adobe Illustrator 21.1.0, SVG Export Plug-In . SVG Version: 6.00 Build 0)  -->
<svg version="1.1" id="logo" xmlns="http://www.w3.org/2000/svg" xmlns:xlink="http://www.w3.org/1999/xlink" x="0px" y="0px"
	 viewBox="0 0 652 123.7" style="enable-background:new 0 0 652 123.7;" xml:space="preserve">
<style type="text/css">
	.st0{fill:#FFFFFF;}
</style>
<title>logoTextNew</title>
<path class="st0" d="M67,123.7c-1.6-15.7-2.1-31.4-1.6-47.2c0.3-6.8,0.8-13.6,2.8-20.2c4.3-14.1,13.2-23.5,27.5-27.5
	c13.7-3.7,27.7,4.4,31.4,18.1c0.3,0.9,0.5,1.9,0.6,2.9c2,13.6-6.6,25.9-20.1,29c-4.8,1.1-9.5,2.2-14.2,3.5C90,83.4,86.9,84.9,84,87
	c-3.9,2.6-7.1,6.2-8.9,10.6c-3,7.1-5.4,14.4-7.1,21.9C67.7,120.9,67.3,122.3,67,123.7z"/>
<path class="st0" d="M60.4,93.2c-1-1.4-1.9-2.8-2.9-3.9c-1.8-2.1-3.6-4.2-5.5-6.1c-4.4-4.3-10.3-6.8-16.5-7c-4-0.2-8.1-0.1-12.1,0.3
	C12.9,77.4,3.5,71.2,0.7,61.1c-3-11.1,3.6-22.6,14.7-25.5c1.7-0.5,3.4-0.7,5.2-0.7c12.6,0,21.9,6,28.2,16.7
	c3.7,6.3,5.9,13.3,7.7,20.4c1.7,6.8,3,13.8,3.8,20.8C60.4,92.8,60.4,92.9,60.4,93.2z"/>
<path class="st0" d="M62,70.3c-0.7-2.3-1.4-4.7-2.1-7c-1.9-6.1-4.6-11.8-8.2-17c-4.2-5.8-9.9-10-16.1-13.5
	c-4.5-2.4-7.7-6.6-8.7-11.6c-1.4-7,0.6-12.9,6.2-17.3s12-5.1,18.5-2c6.9,3.3,10.8,8.8,10.7,16.7c-0.1,16.9-0.1,33.9-0.2,50.8
	C62.1,69.7,62.1,70,62,70.3L62,70.3z"/>
<path class="st0" d="M79.2,0.2c6.9,0,12.4,5.6,12.4,12.4C91.6,19.5,86,25,79.2,25c-6.9,0-12.4-5.6-12.4-12.4
	C66.8,5.8,72.4,0.2,79.2,0.2z"/>
<path class="st0" d="M200.9,67.5c2.6,3.1,3.7,7,3.7,12c0,7.9-2.3,13.5-6.8,16.8c-4.6,3.4-10.1,5.1-16.7,5.1h-27.3
	c-2.8,0-5.1-2.2-5.1-5.1l0,0V32.1c0-2.8,2.2-5.1,5.1-5.1l0,0h27.3c6.5,0,11.4,1.6,14.8,4.8c3.4,3.2,5.1,7.8,5.1,13.8
	c0.1,3.2-0.7,6.4-2.4,9c-1.7,2.8-4.1,4.9-7.1,6.2C195,62.1,198.4,64.4,200.9,67.5z M187.2,39.7c-2.1-1.8-4.8-2.8-7.7-2.7h-20.1v20.7
	h20.3c2.7,0,5.3-1,7.2-2.9c1.9-1.8,2.9-4.4,2.9-7.8S189,41.4,187.2,39.7L187.2,39.7z M190.4,88.6c2.3-2,3.5-5.1,3.5-9.1
	c0-7.9-4.5-11.8-13.4-11.8h-20.9v23.9H181C184.4,91.8,187.7,90.8,190.4,88.6L190.4,88.6z"/>
<path class="st0" d="M216.8,37.1c-1-1-1.5-2.2-1.4-3.5v-1.7c-0.1-1.4,0.4-2.8,1.5-3.6c1.3-0.9,2.9-1.2,4.4-1.1
	c1.5-0.1,3,0.2,4.3,1.1c1,1,1.5,2.2,1.4,3.5v1.7c0.1,1.4-0.3,2.7-1.4,3.6c-1.3,0.9-2.9,1.2-4.4,1.1C219.7,38.3,218.1,38,216.8,37.1z
	 M224.9,99.9c-1,1-2.3,1.5-3.6,1.5c-1.4,0-2.7-0.5-3.6-1.5c-1-1-1.5-2.2-1.5-3.6v-46c0-1.4,0.5-2.7,1.5-3.6c1-1,2.2-1.5,3.6-1.5
	c1.4,0,2.7,0.5,3.6,1.5c1,1,1.5,2.2,1.5,3.6v46C226.4,97.7,225.8,98.9,224.9,99.9L224.9,99.9z"/>
<path class="st0" d="M291.1,46.5c1,1,1.5,2.3,1.5,3.7v46.8c0,5.7-1.2,10.5-3.7,14.5c-2.3,3.8-5.8,6.8-10,8.6
	c-4.5,1.9-9.2,2.9-14.1,2.8c-3.4-0.1-6.7-0.5-10-1.5c-3.8-1-6.3-2-7.3-3.1c-2.2-1.2-3.3-2.6-3.3-4.3c0-0.6,0.2-1.2,0.4-1.7
	c0.6-1.6,2.2-2.8,3.9-2.7c1.1,0,2,0.2,3,0.6c5.6,2.2,10.1,3.3,13.3,3.3c5.6,0,10-1.4,13-4c3-2.8,4.6-6.5,4.6-11.3v-5.7
	c-1.8,3.1-4.4,5.5-7.4,7.1c-3.4,1.9-7.2,3-11.1,3c-4.7,0-9.4-1.3-13.4-3.7c-4-2.6-7.3-6.1-9.5-10.4c-2.3-4.6-3.5-9.7-3.5-14.9
	c-0.1-5.2,1.1-10.3,3.5-14.9c2.1-4.3,5.4-7.9,9.5-10.4c3.9-2.4,8.5-3.8,13.2-3.8c7.3,0,14.2,3.4,18.8,9.1v-3.4
	c0-1.4,0.4-2.7,1.4-3.7c1-1,2.2-1.5,3.6-1.5C288.9,45,290.1,45.5,291.1,46.5z M274.3,90.7c2.8-1.7,5-4.1,6.4-7
	c1.6-3.2,2.3-6.6,2.2-10.2c0.1-3.5-0.7-7-2.2-10.1c-1.5-2.9-3.6-5.3-6.4-7c-2.8-1.7-6-2.7-9.2-2.6c-3.2,0-6.4,0.9-9.1,2.6
	c-2.8,1.7-5,4.1-6.4,7.1c-3.1,6.4-3.1,13.7,0,20.1c1.4,2.9,3.6,5.3,6.4,7.1c2.8,1.7,6,2.6,9.1,2.6S271.5,92.4,274.3,90.7z"/>
<path class="st0" d="M349,30.1c3.2,2,5.8,4.9,7.5,8.3c1.9,3.5,2.9,7.4,2.8,11.5c0,4-1,8-2.8,11.6c-1.8,3.4-4.4,6.3-7.5,8.4
	c-3.1,2-6.7,3.1-10.4,3.1h-20v23.5c0,1.4-0.4,2.7-1.4,3.6c-1.9,1.9-5.1,2-7,0.1c-0.9-1-1.4-2.3-1.4-3.6V32.1c0-2.8,2.2-5.1,5.1-5.1
	l0,0h24.7C342.3,27,345.9,28.1,349,30.1z M343.9,61.3c1.7-1.3,3-3,3.8-5c1-2,1.5-4.4,1.5-6.6c0.1-3.4-1.1-6.6-3.2-9.1
	c-1.8-2.3-4.5-3.7-7.4-3.7h-20v26.4h20C340.5,63.1,342.4,62.5,343.9,61.3L343.9,61.3z"/>
<path class="st0" d="M398.5,45.9c1.3,0.7,2,2.1,2,3.5c0.1,1.4-0.4,2.8-1.4,3.9c-0.9,0.9-2,1.4-3.2,1.4c-1-0.1-1.9-0.3-2.9-0.6
	c-1.2-0.4-2.3-0.6-3.5-0.7c-2.3,0.1-4.6,0.9-6.4,2.3c-2.2,1.6-3.9,3.8-5.1,6.3c-1.4,2.8-2,5.8-2,8.8v25.6c0,1.4-0.5,2.7-1.5,3.6
	c-1,1-2.3,1.5-3.7,1.5c-1.4,0.1-2.7-0.4-3.6-1.4c-1-1-1.4-2.3-1.4-3.6V50.8c0-1.4,0.5-2.7,1.5-3.6c1-1,2.2-1.5,3.6-1.5
	c1.4,0,2.7,0.5,3.7,1.5c1,1,1.5,2.2,1.5,3.6v5.4c1.5-3.4,3.9-6.4,7-8.5s6.8-3.3,10.6-3.4C395.5,44.4,397.1,45,398.5,45.9z"/>
<path class="st0" d="M451.2,88.4c-2.3,4.3-5.8,7.9-10.1,10.3c-8.8,5-19.6,5-28.4,0c-4.3-2.4-7.8-6.1-10.1-10.3
	c-2.6-4.6-3.8-9.7-3.7-14.9c-0.1-5.2,1.2-10.4,3.7-15c2.3-4.4,5.8-8,10.1-10.4c8.8-5,19.6-5,28.4,0c4.3,2.4,7.8,6.1,10.1,10.4
	c2.6,4.6,3.8,9.8,3.7,15C455,78.8,453.7,84,451.2,88.4z M442.4,63.3c-1.5-2.9-3.7-5.3-6.5-7c-5.6-3.3-12.5-3.3-18.2,0
	c-2.8,1.7-5,4.1-6.5,7c-1.6,3.2-2.4,6.7-2.4,10.3c-0.1,3.5,0.7,7,2.4,10.1c1.5,2.9,3.7,5.3,6.5,7c5.6,3.3,12.5,3.3,18.2,0
	c2.8-1.7,5-4.1,6.5-7c1.6-3.1,2.4-6.6,2.4-10.1C444.8,70,444.1,66.5,442.4,63.3z"/>
<path class="st0" d="M479.9,34c-1.2,1.5-1.7,3.3-1.6,5.2v7.4h10.5c1.3,0,2.6,0.4,3.5,1.4c0.9,0.9,1.4,2.1,1.4,3.4s-0.4,2.4-1.4,3.3
	c-1,0.9-2.1,1.3-3.5,1.3h-10.5v40.4c0,1.4-0.5,2.7-1.5,3.6c-1,1-2.3,1.5-3.7,1.5c-1.4,0-2.7-0.5-3.6-1.5c-1-1-1.5-2.2-1.5-3.6V56
	h-6.4c-1.3,0-2.4-0.4-3.4-1.3c-1-0.9-1.4-2-1.4-3.3c0-1.3,0.4-2.4,1.4-3.4c1-0.9,2.1-1.4,3.4-1.4h6.6v-7.4c0-5,1.6-8.9,4.8-11.8
	c3.2-3,7.7-4.4,13.5-4.4c2.2,0,4.4,0.4,6.4,1.4c1.7,0.6,2.8,2.2,2.8,3.9c0,1.3-0.4,2.4-1.3,3.4c-0.7,0.9-1.8,1.4-3,1.4
	c-0.7-0.1-1.6-0.2-2.3-0.4c-1.3-0.4-2.7-0.6-4-0.6C483.1,31.8,481.2,32.5,479.9,34z M502.8,37.1c-1-1-1.5-2.2-1.4-3.5v-1.7
	c-0.1-1.4,0.4-2.8,1.5-3.6c1.3-0.9,2.9-1.2,4.4-1.1c1.5-0.1,3,0.2,4.3,1.1c1,1,1.5,2.2,1.4,3.5v1.7c0.1,1.4-0.3,2.7-1.4,3.6
	c-1.3,0.9-2.9,1.2-4.4,1.1C505.6,38.3,504,38,502.8,37.1z M510.8,99.9c-1,1-2.3,1.5-3.7,1.5c-1.4,0-2.7-0.5-3.6-1.5
	c-1-1-1.5-2.2-1.5-3.6v-46c0-1.4,0.5-2.7,1.5-3.6c1-1,2.2-1.5,3.6-1.5c1.4,0,2.7,0.5,3.7,1.5c1,1,1.5,2.2,1.5,3.6v46
	C512.3,97.7,511.8,98.9,510.8,99.9L510.8,99.9z"/>
<path class="st0" d="M536.3,99.9c-1,1-2.2,1.5-3.6,1.5s-2.7-0.5-3.6-1.5c-1-1-1.5-2.2-1.5-3.6V27.9c0-2.8,2.2-5.1,5.1-5.1l0,0
	c1.4,0,2.7,0.5,3.6,1.5c1,1,1.5,2.2,1.5,3.6v68.4C537.8,97.7,537.3,98.9,536.3,99.9z"/>
<path class="st0" d="M600,74.7c-1,0.9-2.2,1.4-3.5,1.4h-37.4c0.3,4.8,2.4,9.2,5.8,12.4c3.4,3.1,8,4.8,12.5,4.7
	c2.9,0.1,5.6-0.4,8.3-1.5c2.1-1,3.9-2.2,5.6-3.8c1-0.6,2-1,3.1-1c1.2,0,2.2,0.4,3,1.3c0.7,0.7,1.3,1.9,1.3,3c-0.1,1.6-0.9,3.1-2.1,4
	c-2.3,2.2-5.1,4-8.2,5.2c-3.3,1.4-6.8,2.1-10.4,2.1c-5.3,0.1-10.5-1.2-15.2-3.6c-4.3-2.3-7.8-5.8-10.1-10.1
	c-2.4-4.5-3.6-9.6-3.5-14.7c-0.1-5.4,1.2-10.8,3.7-15.7c2.2-4.3,5.5-7.9,9.7-10.4c7.9-4.8,17.7-4.8,25.7-0.1
	c3.9,2.3,7.2,5.6,9.6,9.7c2.4,4.3,3.7,8.9,3.7,13.8C601.5,72.7,600.9,73.9,600,74.7z M565.2,57.2c-2.9,2.2-4.8,5.6-5.7,10.4h31.3
	v-0.9c-0.3-3.6-2.1-7-5.1-9.2c-2.9-2.3-6.5-3.6-10.3-3.6C571.8,53.8,568.2,55,565.2,57.2z"/>
<path class="st0" d="M609.1,89.8c0-1.5,0.9-2.9,2.2-3.6c0.7-0.5,1.6-0.7,2.4-0.7c1.4,0,2.7,0.6,3.5,1.6c1.9,2.2,4.3,4,6.9,5.4
	c2.8,1.3,5.7,1.9,8.8,1.8c2.4,0,4.9-0.6,7.1-1.9c2-1.2,3.2-3.4,3.1-5.6c0.1-2.3-1.2-4.5-3.2-5.5c-2.9-1.6-6-2.8-9.2-3.5
	c-3.4-0.9-6.7-2-9.9-3.4c-2.6-1.2-4.9-2.9-6.7-5.1c-1.9-2.6-2.9-5.6-2.7-8.8c-0.1-3,0.9-6,2.7-8.4c1.9-2.4,4.4-4.4,7.2-5.6
	c3.1-1.4,6.5-2,9.9-2c3.5,0,6.9,0.6,10.1,1.9c3.2,1.2,6.1,3.2,8.3,5.8c0.7,0.9,1.3,1.9,1.3,3.1c-0.1,1.3-0.7,2.4-1.7,3.3
	c-0.7,0.6-1.7,1-2.7,1c-1.2,0-2.3-0.4-3.1-1.3c-1.5-1.7-3.4-3.1-5.5-3.9c-2.2-1-4.7-1.4-7.2-1.4c-2.4-0.1-4.8,0.5-6.9,1.6
	c-1.9,1.1-2.9,3-2.9,5.6c0,2.3,1.2,4.5,3.2,5.5c3.1,1.6,6.3,2.8,9.6,3.5c3.2,0.9,6.4,1.9,9.4,3.2c2.4,1.2,4.7,2.9,6.3,5.1
	c1.8,2.6,2.7,5.6,2.6,8.8c0.1,3.1-1,6.2-2.9,8.7c-1.9,2.4-4.6,4.5-7.4,5.6c-3.1,1.3-6.5,2-9.9,1.9c-4.3,0-8.4-0.7-12.4-2.3
	c-3.8-1.6-7.1-4.1-9.6-7.4C609.4,91.8,609.1,90.9,609.1,89.8z"/>
</svg>
