<?xml version="1.0" encoding="utf-8"?>
<!-- Generator: Adobe Illustrator 21.1.0, SVG Export Plug-In . SVG Version: 6.00 Build 0)  -->
<svg version="1.1" id="logo" xmlns="http://www.w3.org/2000/svg" xmlns:xlink="http://www.w3.org/1999/xlink" x="0px" y="0px"
	 viewBox="0 0 256 256" style="enable-background:new 0 0 256 256;" xml:space="preserve">
<style type="text/css">
	.st0{fill:#FFFFFF;}
</style>
<g>
	<g>
		<path class="st0" d="M204.7,64.1c23.2,0,43.2,17.3,46.6,40.2c1.8,12.1-1,24.2-7.8,34.1c-6.8,9.8-17.2,16.8-29.4,19.6
			c-9.4,2.2-19.1,4.4-28.6,7c-7.5,2.1-14.2,6.1-19.8,9.7l0,0l0,0c-8.7,5.7-15.2,13.4-19.3,22.8c-4.3,9.7-7.7,19.8-10.4,29.4
			c-1.8-25.9-2.1-48.4-1.2-69.4c0.6-12.7,1.4-26.3,5.4-39.4c4.1-13.6,10.5-24.8,19-33.4c8.7-8.8,19.9-15.2,33.3-18.9
			C196.5,64.6,200.6,64.1,204.7,64.1L204.7,64.1 M204.7,60.1c-4.4,0-8.9,0.6-13.3,1.8c-28.6,7.9-46.5,26.9-55,55
			c-4,13.2-5,26.8-5.6,40.4c-1.4,31.5,0.3,62.9,3.2,94.3c0.7-2.8,1.3-5.7,1.9-8.7c3.7-14.9,7.9-29.7,14.2-43.8
			c3.9-8.8,9.9-15.8,17.9-21.1c5.9-3.8,12-7.3,18.7-9.2c9.4-2.6,18.9-4.8,28.4-7c27.1-6.2,44.2-30.9,40.2-58.1
			C251.6,78.3,229.3,60.1,204.7,60.1L204.7,60.1z"/>
	</g>
</g>
<g>
	<g>
		<path class="st0" d="M41.4,77.9c11.7,0,22.1,2.7,30.9,8.1c8.6,5.2,16.1,13.1,22.1,23.4c7.6,13.1,11.8,27.4,15,39.7
			c2.3,8.9,4.2,18.1,5.7,27.8c-2.7-3.1-5.5-6.3-8.5-9.2c-9.4-9.2-21.4-14.2-35.5-15c-2.5-0.2-5-0.2-7.7-0.2c-5,0-10.5,0.3-17.1,0.8
			c-1.2,0.1-2.4,0.2-3.7,0.2c-17.8,0-32.8-11.3-37.3-28c-3.1-11.3-0.8-23.2,6.4-32.6C19,83.3,29.7,77.9,41.4,77.9 M41.4,73.9
			c-27.2,0-47.1,26.4-39.9,52.5c5.1,18.8,21.9,31,41.2,31c1.3,0,2.7-0.1,4-0.2c5.6-0.5,11.2-0.8,16.7-0.8c2.5,0,5,0.1,7.5,0.2
			c12.5,0.7,23.9,5,33,13.9c3.9,3.8,7.4,8,11,12.2c2.1,2.4,3.8,5.1,5.9,7.9c0-0.6,0.1-0.8,0.1-1c-1.6-14.1-4-27.9-7.6-41.6
			c-3.6-14.1-8-28-15.4-40.7C85.2,85.8,66.7,73.9,41.4,73.9L41.4,73.9z"/>
	</g>
</g>
<g>
	<g>
		<path class="st0" d="M87.3,4.4v4c4.5,0,9.3,1.1,14.1,3.4c12.9,6,19.2,15.7,19.2,29.7c0,16.9-0.1,34.2-0.2,50.8
			c0,9.4-0.1,18.9-0.1,28.5c-4-10.5-8.4-18.7-13.7-26c-7.6-10.6-18.3-19.6-33.5-28.1C64.5,61.6,59.5,54.9,57.7,46
			c-2.5-12.6,1.2-22.9,11-30.7c5.8-4.6,12.1-7,18.6-7L87.3,4.4 M87.3,4.4c-7.4,0-14.5,2.6-21.1,7.8C55.1,21,51,32.9,53.8,46.8
			c2.1,10.4,8.2,18,17.3,23.2c12.4,7,23.8,15.3,32.2,27c7.5,10.3,12.4,21.9,16.4,33.9c1.6,4.6,2.9,9.3,4.3,13.9c0.1,0,0.2,0,0.2,0
			c0-0.6,0-1.2,0-1.8c0.1-33.9,0.3-67.7,0.4-101.6c0-15.8-7.6-26.8-21.5-33.3C97.8,5.6,92.5,4.4,87.3,4.4L87.3,4.4z"/>
	</g>
</g>
<g>
	<g>
		<path class="st0" d="M158.5,8.6c11.5,0,20.8,9.4,20.8,20.9c0,11.5-9.4,20.8-20.9,20.8c-11.5,0-20.8-9.4-20.8-20.9
			C137.6,17.9,147,8.6,158.5,8.6 M158.5,4.6c-13.7,0-24.9,11.1-24.9,24.8c0,13.7,11.1,24.9,24.8,24.9c13.8,0,24.9-11.1,24.9-24.8
			S172.2,4.6,158.5,4.6L158.5,4.6z"/>
	</g>
</g>
</svg>
