<?xml version="1.0" encoding="utf-8"?>
<!-- Generator: Adobe Illustrator 21.1.0, SVG Export Plug-In . SVG Version: 6.00 Build 0)  -->
<svg version="1.1" id="logo" xmlns="http://www.w3.org/2000/svg" xmlns:xlink="http://www.w3.org/1999/xlink" x="0px" y="0px"
	 viewBox="0 0 256 256" style="enable-background:new 0 0 256 256;" xml:space="preserve">
<style type="text/css">
	.st0{fill:#FFFFFF;}
</style>
<g>
	<path class="st0" d="M134,251.6c-2.9-31.4-4.6-62.8-3.2-94.3c0.6-13.6,1.6-27.2,5.6-40.4c8.5-28.1,26.4-47.1,55-55
		c29.3-8.1,59.5,11.8,63.9,41.8c4,27.2-13.1,51.9-40.2,58.1c-9.5,2.2-19,4.4-28.4,7c-6.7,1.9-12.8,5.4-18.7,9.2
		c-8,5.3-14,12.3-17.9,21.1c-6.3,14.1-10.5,28.9-14.2,43.8C135.3,245.9,134.7,248.8,134,251.6z"/>
</g>
<g>
	<path class="st0" d="M120.8,190.6c-2.1-2.8-3.8-5.5-5.9-7.9c-3.6-4.2-7.1-8.4-11-12.2c-9.1-8.9-20.5-13.2-33-13.9
		c-8-0.5-16.1-0.1-24.2,0.6C25.7,159,7,146.5,1.5,126.4c-7.2-26.1,12.7-52.5,39.9-52.5c25.3,0,43.8,11.9,56.5,33.4
		c7.4,12.7,11.8,26.6,15.4,40.7c3.6,13.7,6,27.5,7.6,41.6C120.9,189.8,120.8,190,120.8,190.6z"/>
</g>
<g>
	<path class="st0" d="M124,144.8c-1.4-4.6-2.7-9.3-4.3-13.9c-4-12-8.9-23.6-16.4-33.9c-8.4-11.7-19.8-20-32.2-27
		C62,64.8,55.9,57.2,53.8,46.8C51,32.9,55.1,21,66.2,12.2c11.3-9,24-10.1,36.9-4.1c13.9,6.5,21.5,17.5,21.5,33.3
		c-0.1,33.9-0.3,67.7-0.4,101.6c0,0.6,0,1.2,0,1.8C124.2,144.8,124.1,144.8,124,144.8z"/>
</g>
<g>
	<path class="st0" d="M158.5,4.6c13.7,0,24.8,11.2,24.8,24.9c0,13.7-11.1,24.8-24.9,24.8c-13.7,0-24.8-11.2-24.8-24.9
		C133.6,15.7,144.8,4.6,158.5,4.6z"/>
</g>
</svg>
